<svg data-v-423bf9ae="" xmlns="http://www.w3.org/2000/svg" viewBox="0 0 207.5268763542432 60" class="font"><!----><!----><!----><g data-v-423bf9ae="" id="7606ee37-91ab-4d61-83fd-dc13628559ab" fill="black" transform="matrix(7.168458938598633,0,0,7.168458938598633,-2.580646514892578,-17.562726974487305)"><path d="M0.36 6.64L0.36 6.64L0.36 6.64Q0.36 5.69 0.53 4.97L0.53 4.97L0.53 4.97Q0.70 4.26 1.01 3.78L1.01 3.78L1.01 3.78Q1.32 3.30 1.80 3.00L1.80 3.00L1.80 3.00Q2.27 2.70 2.83 2.58L2.83 2.58L2.83 2.58Q3.40 2.45 4.12 2.45L4.12 2.45L4.12 2.45Q5.12 2.45 6.56 2.68L6.56 2.68L6.28 4.84L3.84 4.84L3.84 4.84Q3.72 4.84 3.63 4.87L3.63 4.87L3.63 4.87Q3.55 4.90 3.46 5.01L3.46 5.01L3.46 5.01Q3.38 5.12 3.33 5.31L3.33 5.31L3.33 5.31Q3.28 5.50 3.25 5.83L3.25 5.83L3.25 5.83Q3.21 6.17 3.21 6.64L3.21 6.64L3.21 6.64Q3.21 7.04 3.24 7.34L3.24 7.34L3.24 7.34Q3.26 7.65 3.31 7.84L3.31 7.84L3.31 7.84Q3.36 8.03 3.42 8.16L3.42 8.16L3.42 8.16Q3.48 8.29 3.56 8.35L3.56 8.35L3.56 8.35Q3.65 8.41 3.73 8.43L3.73 8.43L3.73 8.43Q3.80 8.45 3.91 8.45L3.91 8.45L4.18 8.45L4.18 8.45Q4.18 7.78 4.13 6.37L4.13 6.37L4.13 6.37Q4.73 6.35 5.21 6.35L5.21 6.35L5.21 6.35Q5.71 6.35 6.40 6.37L6.40 6.37L6.40 6.37Q6.45 6.38 6.49 6.42L6.49 6.42L6.49 6.42Q6.53 6.46 6.54 6.51L6.54 6.51L6.54 6.51Q6.59 7.78 6.59 8.43L6.59 8.43L6.59 8.43Q6.59 9.55 6.54 10.52L6.54 10.52L6.54 10.52Q5.95 10.62 5.67 10.66L5.67 10.66L5.67 10.66Q5.39 10.71 4.98 10.74L4.98 10.74L4.98 10.74Q4.56 10.78 4.09 10.78L4.09 10.78L4.09 10.78Q3.69 10.78 3.35 10.75L3.35 10.75L3.35 10.75Q3.02 10.72 2.69 10.65L2.69 10.65L2.69 10.65Q2.37 10.58 2.10 10.47L2.10 10.47L2.10 10.47Q1.83 10.35 1.59 10.18L1.59 10.18L1.59 10.18Q1.34 10.00 1.16 9.77L1.16 9.77L1.16 9.77Q0.97 9.54 0.81 9.24L0.81 9.24L0.81 9.24Q0.66 8.93 0.56 8.54L0.56 8.54L0.56 8.54Q0.46 8.16 0.41 7.69L0.41 7.69L0.41 7.69Q0.36 7.21 0.36 6.64ZM7.49 6.65L7.49 6.65L7.49 6.65Q7.49 4.73 7.55 2.55L7.55 2.55L7.55 2.55Q8.20 2.52 10.38 2.52L10.38 2.52L10.38 2.52Q11.74 2.52 12.58 2.55L12.58 2.55L12.58 2.55Q12.63 2.55 12.67 2.59L12.67 2.59L12.67 2.59Q12.71 2.63 12.71 2.68L12.71 2.68L12.71 2.68Q12.73 3.52 12.73 3.87L12.73 3.87L12.73 3.87Q12.73 4.40 12.71 4.87L12.71 4.87L12.71 4.87Q12.06 4.90 10.73 4.90L10.73 4.90L10.73 4.90Q10.47 4.90 10.27 4.90L10.27 4.90L10.27 4.90Q10.27 5.08 10.26 5.47L10.26 5.47L10.26 5.47Q10.26 5.86 10.25 6.07L10.25 6.07L10.25 6.07Q11.37 6.09 11.79 6.10L11.79 6.10L11.79 6.10Q11.84 6.10 11.88 6.14L11.88 6.14L11.88 6.14Q11.92 6.18 11.92 6.24L11.92 6.24L11.92 6.24Q11.94 7.07 11.94 7.42L11.94 7.42L11.94 7.42Q11.94 7.96 11.92 8.43L11.92 8.43L11.92 8.43Q11.42 8.45 10.26 8.46L10.26 8.46L10.26 8.46Q10.28 10.37 10.28 10.75L10.28 10.75L10.28 10.75Q9.63 10.78 9.08 10.78L9.08 10.78L9.08 10.78Q8.52 10.78 7.68 10.75L7.68 10.75L7.68 10.75Q7.63 10.75 7.59 10.71L7.59 10.71L7.59 10.71Q7.55 10.67 7.55 10.61L7.55 10.61L7.55 10.61Q7.49 8.04 7.49 6.65ZM13.23 6.65L13.23 6.65L13.23 6.65Q13.23 4.73 13.29 2.55L13.29 2.55L13.29 2.55Q13.94 2.52 14.49 2.52L14.49 2.52L14.49 2.52Q15.05 2.52 15.89 2.55L15.89 2.55L15.89 2.55Q15.94 2.55 15.98 2.59L15.98 2.59L15.98 2.59Q16.02 2.63 16.02 2.68L16.02 2.68L16.02 2.68Q16.08 5.25 16.08 6.65L16.08 6.65L16.08 6.65Q16.08 7.56 16.07 8.42L16.07 8.42L16.13 8.42L16.13 8.42Q17.37 8.42 18.21 8.45L18.21 8.45L18.21 8.45Q18.27 8.45 18.31 8.49L18.31 8.49L18.31 8.49Q18.35 8.53 18.35 8.59L18.35 8.59L18.35 8.59Q18.36 9.42 18.36 9.77L18.36 9.77L18.36 9.77Q18.36 10.31 18.35 10.78L18.35 10.78L18.35 10.78Q17.70 10.81 16.33 10.81L16.33 10.81L16.33 10.81Q15.99 10.81 14.89 10.79L14.89 10.79L14.89 10.79Q13.79 10.76 13.43 10.75L13.43 10.75L13.43 10.75Q13.37 10.75 13.33 10.71L13.33 10.71L13.33 10.71Q13.29 10.67 13.29 10.61L13.29 10.61L13.29 10.61Q13.23 8.04 13.23 6.65ZM18.84 6.65L18.84 6.65L18.84 6.65Q18.84 4.73 18.89 2.55L18.89 2.55L18.89 2.55Q19.54 2.52 20.09 2.52L20.09 2.52L20.09 2.52Q20.65 2.52 21.49 2.55L21.49 2.55L21.49 2.55Q21.55 2.55 21.59 2.59L21.59 2.59L21.59 2.59Q21.63 2.63 21.63 2.68L21.63 2.68L21.63 2.68Q21.68 5.25 21.68 6.65L21.68 6.65L21.68 6.65Q21.68 8.56 21.63 10.75L21.63 10.75L21.63 10.75Q20.98 10.78 20.43 10.78L20.43 10.78L20.43 10.78Q19.87 10.78 19.03 10.75L19.03 10.75L19.03 10.75Q18.98 10.75 18.94 10.71L18.94 10.71L18.94 10.71Q18.89 10.67 18.89 10.61L18.89 10.61L18.89 10.61Q18.84 8.04 18.84 6.65ZM22.30 10.75L22.30 10.75L22.30 10.75Q22.37 10.39 22.43 10.15L22.43 10.15L22.43 10.15Q22.48 9.91 22.60 9.45L22.60 9.45L22.60 9.45Q22.72 9.00 22.83 8.66L22.83 8.66L22.83 8.66Q22.94 8.33 23.11 7.91L23.11 7.91L23.11 7.91Q23.28 7.49 23.46 7.19L23.46 7.19L23.46 7.19Q23.63 6.90 23.87 6.64L23.87 6.64L23.87 6.64Q24.10 6.38 24.35 6.27L24.35 6.27L24.35 6.24L24.35 6.24Q24.05 6.15 23.71 5.70L23.71 5.70L23.71 5.70Q23.38 5.25 23.10 4.67L23.10 4.67L23.10 4.67Q22.83 4.08 22.63 3.52L22.63 3.52L22.63 3.52Q22.42 2.96 22.33 2.55L22.33 2.55L22.33 2.55Q22.96 2.48 23.69 2.48L23.69 2.48L23.69 2.48Q24.27 2.48 24.79 2.51L24.79 2.51L24.79 2.51Q24.85 2.52 24.91 2.55L24.91 2.55L24.91 2.55Q24.98 2.59 25.00 2.65L25.00 2.65L25.00 2.65Q25.16 3.14 25.46 4.00L25.46 4.00L25.46 4.00Q25.77 4.86 25.80 4.93L25.80 4.93L25.80 4.93Q25.87 4.71 26.04 4.25L26.04 4.25L26.04 4.25Q26.21 3.80 26.35 3.41L26.35 3.41L26.35 3.41Q26.49 3.01 26.61 2.65L26.61 2.65L26.61 2.65Q26.63 2.59 26.69 2.55L26.69 2.55L26.69 2.55Q26.76 2.52 26.82 2.51L26.82 2.51L26.82 2.51Q27.34 2.48 27.92 2.48L27.92 2.48L27.92 2.48Q28.65 2.48 29.28 2.55L29.28 2.55L29.28 2.55Q29.21 2.87 29.07 3.30L29.07 3.30L29.07 3.30Q28.93 3.73 28.72 4.22L28.72 4.22L28.72 4.22Q28.51 4.71 28.28 5.13L28.28 5.13L28.28 5.13Q28.05 5.55 27.78 5.87L27.78 5.87L27.78 5.87Q27.50 6.18 27.25 6.24L27.25 6.24L27.25 6.27L27.25 6.27Q27.44 6.38 27.61 6.55L27.61 6.55L27.61 6.55Q27.79 6.73 27.93 6.91L27.93 6.91L27.93 6.91Q28.07 7.10 28.21 7.36L28.21 7.36L28.21 7.36Q28.34 7.61 28.44 7.83L28.44 7.83L28.44 7.83Q28.54 8.05 28.65 8.35L28.65 8.35L28.65 8.35Q28.76 8.65 28.82 8.87L28.82 8.87L28.82 8.87Q28.89 9.08 28.98 9.40L28.98 9.40L28.98 9.40Q29.06 9.71 29.10 9.89L29.10 9.89L29.10 9.89Q29.15 10.07 29.21 10.35L29.21 10.35L29.21 10.35Q29.28 10.64 29.31 10.75L29.31 10.75L29.31 10.75Q28.68 10.82 27.88 10.82L27.88 10.82L27.88 10.82Q27.30 10.82 26.78 10.79L26.78 10.79L26.78 10.79Q26.71 10.79 26.65 10.75L26.65 10.75L26.65 10.75Q26.59 10.71 26.57 10.65L26.57 10.65L26.57 10.65Q26.28 9.76 25.80 7.88L25.80 7.88L25.80 7.88Q25.32 9.80 25.04 10.65L25.04 10.65L25.04 10.65Q25.02 10.71 24.95 10.75L24.95 10.75L24.95 10.75Q24.89 10.79 24.83 10.79L24.83 10.79L24.83 10.79Q24.31 10.82 23.73 10.82L23.73 10.82L23.73 10.82Q22.93 10.82 22.30 10.75Z"></path></g><!----><!----></svg>